<svg width="47" height="51" viewBox="0 0 47 51" fill="none" xmlns="http://www.w3.org/2000/svg">
<g clip-path="url(#clip0_5799_409)">
<path d="M24.74 41.5022L23.2743 41.2435L20.8399 40.8L24.74 41.5022Z" fill="#FCDE9C"/>
<path d="M24.8263 41.517L24.74 41.5015L24.806 41.4705L24.8263 41.517Z" fill="#FCDE9C"/>
<path d="M25.8102 41.6922V41.6975L24.8466 41.5233L25.8102 41.6922Z" fill="#FCDE9C"/>
<path d="M25.9725 48.0171V48.0382L25.8102 48.1227V48.1016L25.9725 48.0171Z" fill="#FCDE9C"/>
<path d="M25.8102 48.1015V48.1227L25.9725 48.0382V48.0171L25.8102 48.1015ZM20.8399 40.8L23.2743 41.2435L24.74 41.5022L20.8399 40.8ZM24.806 41.4705L24.74 41.5022L24.8263 41.518L24.806 41.4705Z" fill="#ACF2DA"/>
<path d="M24.806 41.4705L24.74 41.5022L24.8263 41.518L24.806 41.4705ZM20.8399 40.8L23.2743 41.2435L24.74 41.5022L20.8399 40.8ZM2.77425 36.3441L3.61109 35.9006C3.322 36.0168 3.04306 36.1699 2.77425 36.3441Z" fill="#FF9B96"/>
<path d="M24.74 41.5022L20.8399 40.8L23.2743 41.2435L14.1553 39.6068L6.20276 38.1814C6.02525 38.1497 5.84774 38.1339 5.67023 38.1339C4.93482 38.1339 4.22478 38.4031 3.65167 38.9047C2.94162 39.5224 2.53588 40.4357 2.53588 41.3966C2.53588 42.8854 3.48937 44.1631 4.84353 44.5485C4.93989 44.5749 5.03626 44.6013 5.13769 44.6171L19.009 47.0985L19.4908 47.1882L25.4653 48.2811H25.5008L25.8102 48.3444V51H25.8L4.71167 47.2146C3.59081 47.014 2.59674 46.486 1.81569 45.7258C1.73961 45.6519 1.66354 45.578 1.59253 45.4988C0.598468 44.4323 0 42.9805 0 41.3966C0 39.8128 0.573109 38.3926 1.59253 37.2944C1.7244 37.1519 1.86641 37.0146 2.01856 36.8826C2.16057 36.7559 2.31272 36.6398 2.46488 36.5342C2.54095 36.4814 2.6221 36.4339 2.69818 36.3864H2.70325C2.70325 36.3864 2.71846 36.3758 2.72861 36.3705H2.73368C2.73368 36.3705 2.75904 36.3547 2.76918 36.3494H2.77425L3.61109 35.9059H3.62631C4.56966 35.5205 5.60937 35.4044 6.63386 35.5891L17.9236 37.6112H17.9287L25.4805 38.968L25.8102 39.0261V41.6975L24.8466 41.5286H24.8263L24.806 41.4758L24.74 41.5075V41.5022Z" fill="#FF9B96"/>
<path d="M25.8102 41.6923V41.6975L24.8466 41.5233L25.8102 41.6923Z" fill="#029D5A"/>
<path d="M25.871 41.7078L25.8102 41.7389V41.6975L25.871 41.7078Z" fill="#029D5A"/>
<path d="M47 39.1158V39.327C47 39.7916 46.7464 40.2193 46.3457 40.4252L25.8102 51V48.3444L25.9725 48.2599L29.6495 46.3382L43.0339 39.195L45.301 38.023C45.4734 37.9332 45.6509 37.891 45.8234 37.891C46.4421 37.891 47 38.4084 47 39.1158Z" fill="#FF2B20"/>
<path d="M25.9725 48.0171V48.0382L25.8102 48.1227V48.1016L25.9725 48.0171Z" fill="#FF2B20"/>
<path d="M25.8102 41.6975V48.3444L25.5008 48.2863H25.4653L19.4908 47.1882L19.009 47.0984L5.13769 44.6171C5.03626 44.6012 4.93989 44.5748 4.84353 44.5484C3.48937 44.163 2.53588 42.8854 2.53588 41.3966C2.53588 40.4357 2.94162 39.5224 3.65167 38.9047C4.22478 38.4031 4.93482 38.1339 5.67023 38.1339C5.84774 38.1339 6.02525 38.1497 6.20276 38.1814L14.1553 39.6068L23.2743 41.2435L24.74 41.5022L24.8263 41.518H24.8466L25.8102 41.6975Z" fill="#FDFEFF"/>
<path d="M25.871 41.7078L25.8102 41.7389V41.6975L25.871 41.7078Z" fill="#D2D7DF"/>
<path d="M45.301 31.6559V38.023L43.0339 39.195L29.6495 46.3382L25.9725 48.2599L25.8102 48.3444V48.1227L25.9725 48.0382V48.0171L25.8102 48.1015V41.7397L25.871 41.7081L25.9725 41.6553L32.7585 38.1444L45.301 31.6559Z" fill="#D2D7DF"/>
<path d="M45.5951 28.6571L42.1768 30.3307L42.1362 30.3519L41.8877 30.4786L29.6647 36.7981L29.1322 37.078L41.8877 30.4786L29.969 36.7981L29.4365 37.078L28.833 37.3894L25.8102 39.0208L25.4805 38.9627L17.9287 37.6059H17.9236L6.63386 35.5839C5.60937 35.3991 4.56966 35.5152 3.62631 35.8953L5.8731 34.8447H5.87817L10.0066 32.9071L20.2363 28.1186H20.2465L24.3698 26.1811L25.2979 25.7481L25.4907 25.6584L25.8102 25.7006L26.0181 25.7323L26.9006 25.8484L28.833 26.1124L31.0392 26.4503H31.0442L40.6147 27.9022L44.9459 28.5621H44.951L45.59 28.6571H45.5951Z" fill="#FF675F"/>
<path d="M29.6647 36.7981L41.8877 30.4786L29.1322 37.078L29.6647 36.7981Z" fill="#FF2B20"/>
<path d="M47 29.9612C47 30.4627 46.7261 30.9221 46.295 31.1438L45.301 31.6559L32.7585 38.1444L25.9725 41.6553L25.871 41.7081L25.8102 41.6975V39.0208L28.833 37.3894L29.4365 37.078L29.969 36.7981L41.8877 30.4786L42.1362 30.3519L42.1768 30.3308L45.5951 28.6571H45.6002C46.3153 28.5727 47 29.1481 47 29.9612Z" fill="#FF2B20"/>
<path d="M41.8877 30.4786L29.1322 37.078L29.6647 36.7981L41.8877 30.4786Z" fill="#ACF2DA"/>
<path d="M41.8877 30.4786L29.1322 37.078L29.6647 36.7981L41.8877 30.4786Z" fill="#FF675F"/>
<path d="M24.74 28.9211L23.2743 28.6624L20.8399 28.2189L24.74 28.9211Z" fill="#FCDE9C"/>
<path d="M24.8263 28.9359L24.74 28.9204L24.806 28.8894L24.8263 28.9359Z" fill="#FCDE9C"/>
<path d="M25.8102 29.1111V29.1164L24.8466 28.9422L25.8102 29.1111Z" fill="#FCDE9C"/>
<path d="M25.9725 35.436V35.4572L25.8102 35.5416V35.5205L25.9725 35.436Z" fill="#FCDE9C"/>
<path d="M24.806 28.8894L24.74 28.9211L24.8263 28.9369L24.806 28.8894ZM20.8399 28.2189L23.2743 28.6624L24.74 28.9211L20.8399 28.2189ZM25.8102 35.5205V35.5416L25.9725 35.4571V35.436L25.8102 35.5205Z" fill="#ACF2DA"/>
<path d="M2.77425 23.7631L3.61109 23.3196C3.322 23.4357 3.04306 23.5888 2.77425 23.7631ZM20.8399 28.219L23.2743 28.6624L24.74 28.9211L20.8399 28.219ZM24.806 28.8895L24.74 28.9211L24.8263 28.937L24.806 28.8895Z" fill="#83A3F8"/>
<path d="M24.74 28.9211L20.8399 28.2189L23.2743 28.6624L14.1553 27.0258L6.20276 25.6003C6.02525 25.5686 5.84774 25.5528 5.67023 25.5528C4.93482 25.5528 4.22478 25.822 3.65167 26.3236C2.94162 26.9413 2.53588 27.8546 2.53588 28.8155C2.53588 30.3043 3.48937 31.582 4.84353 31.9674C4.93989 31.9938 5.03626 32.0202 5.13769 32.036L19.009 34.5174L19.4908 34.6071L25.4653 35.7H25.5008L25.8102 35.7633V38.4189H25.8L4.71167 34.6335C3.59081 34.4329 2.59674 33.905 1.81569 33.1447C1.73961 33.0708 1.66354 32.9969 1.59253 32.9177C0.598468 31.8512 0 30.3994 0 28.8155C0 27.2317 0.573109 25.8115 1.59253 24.7133C1.7244 24.5708 1.86641 24.4335 2.01856 24.3015C2.16057 24.1748 2.31272 24.0587 2.46488 23.9531C2.54095 23.9003 2.6221 23.8528 2.69818 23.8053H2.70325C2.70325 23.8053 2.71846 23.7947 2.72861 23.7894H2.73368C2.73368 23.7894 2.75904 23.7736 2.76918 23.7683C2.76918 23.7683 2.76918 23.7683 2.76918 23.763L3.60602 23.3196H3.62124C4.56458 22.9342 5.6043 22.818 6.62879 23.0028L17.9185 25.0248L25.4704 26.3817L25.8 26.4397V29.1112L24.8364 28.9422H24.8161L24.7958 28.8894L24.7299 28.9211H24.74Z" fill="#7298FF"/>
<path d="M25.8102 29.1112V29.1165L24.8466 28.9423L25.8102 29.1112Z" fill="#029D5A"/>
<path d="M25.871 29.1269L25.8102 29.1579V29.1165L25.871 29.1269Z" fill="#029D5A"/>
<path d="M47 26.5348V26.746C47 27.2106 46.7464 27.6382 46.3457 27.8441L25.8102 38.4189V35.7634L25.9725 35.6789L29.6495 33.7571L43.0339 26.614L45.301 25.4419C45.4734 25.3522 45.6509 25.3099 45.8234 25.3099C46.4421 25.3099 47 25.8273 47 26.5348Z" fill="#2667FF"/>
<path d="M25.9725 35.436V35.4572L25.8102 35.5416V35.5205L25.9725 35.436Z" fill="#2667FF"/>
<path d="M25.8102 29.1165V35.7634L25.5008 35.7053H25.4653L19.4908 34.6071L19.009 34.5174L5.13769 32.036C5.03626 32.0202 4.93989 31.9938 4.84353 31.9674C3.48937 31.582 2.53588 30.3043 2.53588 28.8155C2.53588 27.8547 2.94162 26.9413 3.65167 26.3236C4.22478 25.822 4.93482 25.5528 5.67023 25.5528C5.84774 25.5528 6.02525 25.5686 6.20276 25.6003L14.1553 27.0258L23.2743 28.6624L24.74 28.9211L24.8263 28.937H24.8466L25.8102 29.1165Z" fill="#FDFEFF"/>
<path d="M25.871 29.1268L25.8102 29.1578V29.1165L25.871 29.1268Z" fill="#D2D7DF"/>
<path d="M45.301 19.0748V25.4419L43.0339 26.614L29.6495 33.7571L25.9725 35.6789L25.8102 35.7633V35.5416L25.9725 35.4571V35.436L25.8102 35.5205V29.1587L25.871 29.127L25.9725 29.0742L32.7585 25.5633L45.301 19.0748Z" fill="#D2D7DF"/>
<path d="M45.5951 16.0761L42.1768 17.7497L42.1362 17.7708L41.8877 17.8975L29.6647 24.2171L29.1322 24.4969L41.8877 17.8975L29.969 24.2171L29.4365 24.4969L28.833 24.8084L26.9057 25.8484L25.8153 26.4398L25.4856 26.3817L24.3749 26.1811L17.9337 25.0248H17.9287L6.63893 23.0028C5.61444 22.818 4.57473 22.9342 3.63138 23.3143L5.87817 22.2637L25.303 25.7481L25.4957 25.6584L25.8153 25.7006V23.1823L25.5059 23.1242H25.4704L19.4958 22.0261L19.014 21.9363L10.0117 20.3261L20.2414 15.5376H20.2515L24.3749 13.6L25.4957 13.0773L26.9057 13.2674L28.8431 13.5314L31.0544 13.8693L40.6248 15.3211L44.9612 15.9811L45.6002 16.0761H45.5951Z" fill="#83A3F8"/>
<path d="M29.6647 24.2171L41.8877 17.8975L29.1322 24.4969L29.6647 24.2171Z" fill="#FF2B20"/>
<path d="M47 17.3801C47 17.8817 46.7261 18.341 46.295 18.5627L45.301 19.0749L32.7585 25.5634L25.9725 29.0742L25.871 29.127L25.8102 29.1165V26.4398L28.833 24.8084L29.4365 24.4969L29.969 24.2171L41.8877 17.8975L42.1362 17.7708L42.1768 17.7497L45.5951 16.0761C46.3102 15.9916 46.9949 16.5671 46.9949 17.3801H47Z" fill="#2667FF"/>
<path d="M41.8877 17.8975L29.1322 24.4969L29.6647 24.2171L41.8877 17.8975Z" fill="#ACF2DA"/>
<path d="M41.8877 17.8975L29.1322 24.4969L29.6647 24.2171L41.8877 17.8975Z" fill="#FF675F"/>
<path d="M24.74 16.3401L23.2743 16.0814L20.8399 15.6379L24.74 16.3401Z" fill="#FCDE9C"/>
<path d="M24.8263 16.3549L24.74 16.3394L24.806 16.3083L24.8263 16.3549Z" fill="#FCDE9C"/>
<path d="M25.8102 16.5301V16.5354L24.8466 16.3611L25.8102 16.5301Z" fill="#FCDE9C"/>
<path d="M25.9725 22.855V22.8761L25.8102 22.9606V22.9395L25.9725 22.855Z" fill="#FCDE9C"/>
<path d="M24.806 16.3084L24.74 16.3401L24.8263 16.3559L24.806 16.3084ZM20.8399 15.6379L23.2743 16.0814L24.74 16.3401L20.8399 15.6379ZM25.8102 22.9394V22.9605L25.9725 22.8761V22.855L25.8102 22.9394Z" fill="#ACF2DA"/>
<path d="M2.77425 11.182L3.61109 10.7385C3.322 10.8547 3.04306 11.0078 2.77425 11.182ZM20.8399 15.6379L23.2743 16.0814L24.74 16.3401L20.8399 15.6379ZM24.806 16.3084L24.74 16.3401L24.8263 16.3559L24.806 16.3084Z" fill="#FF9B96"/>
<path d="M25.8102 23.1823V25.7006L25.4907 25.6583L25.2979 25.7481L5.8731 22.2636L10.0066 20.326L19.009 21.9363L19.4908 22.0261L25.4653 23.1189L25.5008 23.1242L25.8102 23.1823Z" fill="#FF9B96"/>
<path d="M25.8102 13.8587V16.5301L24.8466 16.3612H24.8263L24.806 16.3084L24.74 16.3401L20.8399 15.6379L23.2743 16.0814L20.2363 15.5376L14.1553 14.4447L6.20276 13.0192C6.02525 12.9876 5.84774 12.9717 5.67023 12.9717C4.93482 12.9717 4.22478 13.241 3.65167 13.7425C2.94162 14.3602 2.53588 15.2736 2.53588 16.2345C2.53588 17.7233 3.48937 19.0009 4.84353 19.3863C4.93989 19.4127 5.03626 19.4391 5.13769 19.455L10.0066 20.3261L5.8731 22.2637L4.71167 22.0525C3.59081 21.8519 2.59674 21.3239 1.81569 20.5637C1.73961 20.4897 1.66354 20.4158 1.59253 20.3366C0.598468 19.2702 0 17.8183 0 16.2345C0 14.6506 0.573109 13.2304 1.59253 12.1323C1.7244 11.9897 1.86641 11.8525 2.01856 11.7205C2.16057 11.5938 2.31272 11.4776 2.46488 11.372C2.54095 11.3192 2.6221 11.2717 2.69818 11.2242H2.70325C2.70325 11.2242 2.71846 11.2137 2.72861 11.2084H2.73368C2.73368 11.2084 2.75904 11.1925 2.76918 11.1873C2.76918 11.1873 2.77425 11.1873 2.77425 11.182L3.61109 10.7385H3.62631C4.56966 10.3531 5.60937 10.2369 6.63386 10.4217L17.9236 12.4438H17.9287L24.3698 13.6L25.4805 13.8006L25.8102 13.8587Z" fill="#FF9B96"/>
<path d="M25.4907 25.6584L25.8102 25.7006V25.8379H25.8L25.2979 25.7481L25.4907 25.6584Z" fill="#FF9B96"/>
<path d="M25.8102 16.5302V16.5354L24.8466 16.3612L25.8102 16.5302Z" fill="#029D5A"/>
<path d="M25.871 16.5457L25.8102 16.5768V16.5354L25.871 16.5457Z" fill="#029D5A"/>
<path d="M47 13.9537V14.1649C47 14.6295 46.7464 15.0571 46.3457 15.263L44.9561 15.9811L26.0181 25.7323L25.8102 25.8379V23.1823L25.9725 23.0978L29.6495 21.1761L40.6197 15.3211L43.0339 14.0329L45.301 12.8609C45.4734 12.7711 45.6509 12.7289 45.8234 12.7289C46.4421 12.7289 47 13.2463 47 13.9537Z" fill="#FF2B20"/>
<path d="M25.9725 22.855V22.8761L25.8102 22.9606V22.9395L25.9725 22.855Z" fill="#FF2B20"/>
<path d="M25.8102 16.5354V23.1823L25.5008 23.1242H25.4653L19.4908 22.0261L19.009 21.9363L10.0066 20.3261L5.13769 19.455C5.03626 19.4391 4.93989 19.4127 4.84353 19.3863C3.48937 19.0009 2.53588 17.7233 2.53588 16.2345C2.53588 15.2736 2.94162 14.3603 3.65167 13.7425C4.22478 13.241 4.93482 12.9717 5.67023 12.9717C5.84774 12.9717 6.02525 12.9876 6.20276 13.0193L14.1553 14.4447L20.2363 15.5376L23.2743 16.0814L24.74 16.3401L24.8263 16.3559H24.8466L25.8102 16.5354Z" fill="#FDFEFF"/>
<path d="M25.871 16.5457L25.8102 16.5768V16.5354L25.871 16.5457Z" fill="#D2D7DF"/>
<path d="M45.301 6.49377V12.8609L43.0339 14.0329L29.6495 21.1761L25.9725 23.0978L25.8102 23.1823V22.9605L25.9725 22.8761V22.855L25.8102 22.9394V16.5776L25.871 16.5459L25.9725 16.4932L32.7585 12.9823L45.301 6.49377Z" fill="#D2D7DF"/>
<path d="M45.5951 3.49503L42.1768 5.16864L42.1362 5.18976L41.8877 5.31646L29.6647 11.636L29.1322 11.9158L41.8877 5.31646L29.969 11.636L29.4365 11.9158L28.833 12.2273L25.8102 13.8587L25.4805 13.8006L17.9287 12.4438L6.63893 10.4217C5.61444 10.237 4.57473 10.3531 3.63138 10.7332L25.4907 0.496277L28.838 0.950314L45.5951 3.49503Z" fill="#FF675F"/>
<path d="M29.6647 11.636L41.8877 5.31647L29.1322 11.9158L29.6647 11.636Z" fill="#FF2B20"/>
<path d="M47 4.79908C47 5.30063 46.7261 5.75995 46.295 5.98169L45.301 6.4938L32.7585 12.9823L25.9725 16.4932L25.871 16.546L25.8102 16.5354V13.8587L28.833 12.2273L29.4365 11.9158L29.969 11.636L41.8877 5.31647L42.1362 5.18976L42.1768 5.16864L45.5951 3.49504C46.3102 3.41057 46.9949 3.98603 46.9949 4.79908H47Z" fill="#FF2B20"/>
</g>
<defs>
<clipPath id="clip0_5799_409">
<rect width="47" height="51" fill="white"/>
</clipPath>
</defs>
</svg>
