<svg width="49" height="48" viewBox="0 0 49 48" fill="none" xmlns="http://www.w3.org/2000/svg">
<g clip-path="url(#clip0_6354_7664)">
<mask id="mask0_6354_7664" style="mask-type:luminance" maskUnits="userSpaceOnUse" x="0" y="0" width="49" height="48">
<path d="M49 0H0V48H49V0Z" fill="white"/>
</mask>
<g mask="url(#mask0_6354_7664)">
<path d="M46.3611 30.7222L42.6529 32.1025C42.1987 32.268 41.825 32.5703 41.5663 32.9468C41.2329 33.4202 41.0891 34.0191 41.1869 34.6181L41.8423 38.4911C42.3482 41.5143 39.3989 43.9728 36.4898 42.9517L32.7586 41.6398C31.718 41.2747 30.5625 41.6911 30.0048 42.6323L27.9926 46.0205C26.4231 48.6615 22.5711 48.6615 21.0016 46.0205L18.9952 42.6323C18.4317 41.6911 17.2819 41.2747 16.2413 41.6398L12.5101 42.9517C9.59527 43.9728 6.64595 41.5143 7.15763 38.4911L7.80728 34.6181C7.99125 33.54 7.3761 32.4847 6.34125 32.1025L2.63305 30.7222C-0.258773 29.6498 -0.925674 25.8851 1.41998 23.8943L4.43253 21.3446C5.26616 20.6316 5.48463 19.4337 4.93846 18.4812L2.98949 15.0644C1.47172 12.3949 3.39768 9.08651 6.48498 9.05799L9.08359 9.03517L10.4404 9.02376C11.5443 9.01235 12.4871 8.23089 12.6883 7.15282L13.4127 3.29114C13.9762 0.279378 17.5924 -1.02686 19.9783 0.918237L23.0311 3.41663C23.8819 4.11253 25.1123 4.11253 25.9631 3.41663L29.0217 0.918237C30.0335 0.0911425 31.2638 -0.148429 32.3907 0.0854385C33.9257 0.387756 35.2653 1.5571 35.5872 3.29114L36.3059 7.15282C36.5071 8.23089 37.4499 9.01235 38.5538 9.02376L42.5149 9.05799C45.6022 9.08651 47.5282 12.3949 46.0047 15.0644L44.0557 18.4812C43.5153 19.4337 43.728 20.6316 44.5674 21.3446L47.5742 23.8943C49.9256 25.8851 49.2587 29.6498 46.3611 30.7222Z" fill="#FF2B20"/>
<path d="M46.3612 30.7223L42.653 32.1027C42.1989 32.2681 41.8252 32.5704 41.5664 32.9469C38.3814 32.616 35.3056 31.9087 32.3908 30.8763C21.8641 27.1515 13.3899 19.1715 9.08374 9.03529L10.4406 9.02389C11.5444 9.01248 12.4873 8.23102 12.6885 7.15294L13.4129 3.29127C13.9763 0.2795 17.5925 -1.02674 19.9784 0.918359L23.0312 3.41675C23.8821 4.11266 25.1124 4.11266 25.9633 3.41675L29.0218 0.918359C30.0337 0.0912653 31.264 -0.148307 32.3908 0.0855613C33.9258 0.387878 35.2654 1.55722 35.5873 3.29127L36.306 7.15294C36.5072 8.23102 37.4501 9.01248 38.5539 9.02389L42.5151 9.05811C45.6023 9.08663 47.5283 12.395 46.0048 15.0645L44.0558 18.4813C43.5154 19.4339 43.7281 20.6317 44.5675 21.3447L47.5743 23.8945C49.9257 25.8852 49.2588 29.6499 46.3612 30.7223Z" fill="#FF675F"/>
<path d="M22.6056 33.8139L13.5334 26.8948L15.9825 23.729L22.0019 28.3151L32.7011 15.652L35.7826 18.2189L22.6056 33.8139Z" fill="#FDFEFF"/>
</g>
</g>
<defs>
<clipPath id="clip0_6354_7664">
<rect width="49" height="48" fill="white"/>
</clipPath>
</defs>
</svg>
