<svg width="44" height="44" viewBox="0 0 44 44" fill="none" xmlns="http://www.w3.org/2000/svg">
<g clip-path="url(#clip0_5790_404)">
<path d="M37.5564 6.44359C33.4013 2.28852 27.8764 0 22 0C16.1236 0 10.5987 2.28852 6.44359 6.44359C2.28852 10.5987 0 16.1236 0 22C0 27.8764 2.28852 33.4013 6.44359 37.5564C10.5987 41.7115 16.1236 44 22 44C27.8764 44 33.4013 41.7115 37.5564 37.5564C41.7115 33.4013 44 27.8764 44 22C44 16.1236 41.7115 10.5987 37.5564 6.44359Z" fill="#83A3F8"/>
<path d="M37.5564 6.44359C33.4013 2.28852 27.8764 0 22 0V44C27.8764 44 33.4013 41.7115 37.5564 37.5564C41.7115 33.4013 44 27.8764 44 22C44 16.1236 41.7115 10.5987 37.5564 6.44359Z" fill="#2667FF"/>
<path d="M36.3645 22C36.3645 29.9329 29.9329 36.3644 22 36.3644C14.0671 36.3644 7.63555 29.9329 7.63555 22C7.63555 14.0671 14.0671 7.63554 22 7.63554C29.9329 7.63554 36.3645 14.0671 36.3645 22Z" fill="#FDFEFF"/>
<path d="M36.3645 22C36.3645 29.9329 29.9329 36.3644 22 36.3644V7.63554C29.9329 7.63554 36.3645 14.0671 36.3645 22Z" fill="#E8EBEF"/>
<path d="M26.8847 25.587L23.2891 21.5127V14.7254C23.2891 14.0138 22.7124 13.4363 22 13.4363C21.2876 13.4363 20.7109 14.0138 20.7109 14.7254V22C20.7109 22.3145 20.8261 22.617 21.0332 22.8534L24.9511 27.2929C25.2055 27.5816 25.5612 27.7295 25.9179 27.7286C26.2204 27.7286 26.5255 27.6229 26.7704 27.4063C27.3041 26.9354 27.3548 26.1207 26.8838 25.587H26.8847Z" fill="#002374"/>
</g>
<defs>
<clipPath id="clip0_5790_404">
<rect width="44" height="44" fill="white"/>
</clipPath>
</defs>
</svg>
