<?xml version="1.0" encoding="UTF-8"?>
<svg id="All" xmlns="http://www.w3.org/2000/svg" viewBox="0 0 54.97 54.94">
  <defs>
    <style>
      .cls-1 {
        fill: #0a226f;
      }

      .cls-2 {
        fill: #d6e0fc;
      }

      .cls-3 {
        fill: #88a1f1;
      }
    </style>
  </defs>
  <g>
    <path class="cls-3" d="M15.41,46.42c-.56,1.17-.68,2.45-.4,3.63h-.64c-2.25,0-4.07-1.83-4.07-4.07v-6.91l-3.61,5.77c-.81,1.3-2.44,1.86-3.96,1.48-.43-.11-.85-.3-1.24-.57-1.55-1.07-1.91-3.11-.95-4.62l8.77-14.01,1.13-2.02c.43-1.8,2.03-3.13,3.95-3.13h8.75c1.48,0,2.78.79,3.49,1.96-.72.64-1.29,1.43-1.68,2.33l-1.33,3.18-8.19,16.99Z"/>
    <circle class="cls-3" cx="18.65" cy="12.93" r="6.89"/>
    <circle class="cls-2" cx="35.38" cy="14" r="7.34"/>
    <path class="cls-2" d="M53.14,52.15c-.44.27-.9.43-1.38.5-1.64.27-3.34-.56-4.1-2.15l-2.11-4.38v4.16c0,2.57-2.08,4.65-4.66,4.65h-10.46c-2.57,0-4.66-2.08-4.66-4.65v-4.55l-2.05,4.26-.25.51c-.76,1.58-2.45,2.41-4.1,2.15-.47-.07-.93-.24-1.38-.5-.82-.48-1.38-1.24-1.64-2.1-.31-.98-.25-2.08.23-3.06l8.19-16.99,1.01-2.4c.51-1.06.8-1.92,1.5-2.67.84-.93,1.79-1.66,3.15-1.66h10.46c2.58,0,4.04,2.1,4.66,4.66l.81,2.07,8.19,16.99c.88,1.83.34,4.13-1.42,5.16Z"/>
  </g>
  <polygon class="cls-1" points="44.56 14.49 44.56 13.35 40.6 13.35 40.6 14.49 42.64 14.49 40.6 15.99 40.6 17.13 44.56 17.13 44.56 15.99 42.54 15.99 44.55 14.49 44.56 14.49"/>
  <polygon class="cls-1" points="52.4 9.74 52.4 8.36 47.64 8.36 47.64 9.74 50.09 9.74 47.64 11.54 47.64 12.92 52.4 12.92 52.4 11.54 49.98 11.54 52.39 9.74 52.4 9.74"/>
  <polygon class="cls-1" points="47.3 2.12 47.3 0 39.95 0 39.95 2.12 43.73 2.12 39.95 4.9 39.95 7.02 47.3 7.02 47.3 4.9 43.56 4.9 47.28 2.12 47.3 2.12"/>
</svg>