<svg width="27" height="50" viewBox="0 0 27 50" fill="none" xmlns="http://www.w3.org/2000/svg">
<g clip-path="url(#clip0_5799_502)">
<path d="M23.1814 9.55817H4.06275C3.20283 9.55817 2.50324 10.2599 2.50324 11.1236V40.4419L24.4968 10.2792C24.2198 9.84348 23.7352 9.55817 23.1814 9.55817Z" fill="#FDFEFF"/>
<path d="M26.847 2.84161C26.3879 1.19911 24.9522 0 23.2506 0H3.74939C1.67976 0 0 1.77745 0 3.96746V46.0325C0 48.2225 1.67976 50 3.74939 50H23.2506C25.3239 50 27 48.2225 27 46.0325V3.96746C27 3.57804 26.9453 3.20019 26.847 2.84161ZM24.6206 42.921C24.6206 43.7847 23.9211 44.4864 23.0575 44.4864H3.94251C3.08259 44.4864 2.383 43.7847 2.383 42.921V7.07896C2.383 6.2153 3.08259 5.51357 3.94251 5.51357H23.0575C23.6113 5.51357 24.096 5.79889 24.3729 6.23458C24.5296 6.47748 24.6206 6.76666 24.6206 7.07896V42.921Z" fill="#2667FF"/>
<path d="M24.3729 6.23456L2.383 36.3973V7.07894C2.383 6.21528 3.08259 5.51355 3.94251 5.51355H23.0575C23.6113 5.51355 24.0959 5.79887 24.3729 6.23456Z" fill="#FDFEFF"/>
<path d="M24.6206 7.07894V42.921C24.6206 43.7847 23.9211 44.4864 23.0575 44.4864H3.94251C3.08259 44.4864 2.383 43.7847 2.383 42.921V36.3973L24.3729 6.23456C24.5296 6.47746 24.6206 6.76664 24.6206 7.07894Z" fill="#E8EBEF"/>
<path d="M13.5 34.0145C18.2049 34.0145 22.019 29.9785 22.019 25C22.019 20.0214 18.2049 15.9855 13.5 15.9855C8.79507 15.9855 4.98097 20.0214 4.98097 25C4.98097 29.9785 8.79507 34.0145 13.5 34.0145Z" fill="#0AFB93"/>
<path d="M17.3368 19.6213L11.7729 26.6463L8.63927 24.0939L6.91943 26.4613L12.1992 30.7526L19.4976 21.5376L17.3368 19.6213Z" fill="#FDFEFF"/>
</g>
<defs>
<clipPath id="clip0_5799_502">
<rect width="27" height="50" fill="white"/>
</clipPath>
</defs>
</svg>
