<?xml version="1.0" encoding="UTF-8"?>
<svg id="new_ones" data-name="new ones" xmlns="http://www.w3.org/2000/svg" viewBox="0 0 60.28 60.28">
  <defs>
    <style>
      .cls-1 {
        fill: #fcfdff;
      }

      .cls-2 {
        fill: #ff974e;
      }

      .cls-3 {
        fill: #fff;
      }

      .cls-4 {
        fill: #bac2ce;
      }

      .cls-5 {
        fill: #697a92;
      }

      .cls-6 {
        fill: #fbfcff;
      }

      .cls-7 {
        fill: #20283e;
      }
    </style>
  </defs>
  <g>
    <path class="cls-2" d="M57.9,24.35c-.76.87-1.64,1.61-2.63,2.21.18,1.24.28,2.51.28,3.81,0,14.04-11.42,25.46-25.46,25.46S4.63,44.41,4.63,30.37,16.05,4.91,30.09,4.91c4.63,0,8.97,1.24,12.71,3.41.9-.7,1.91-1.27,3.01-1.66-4.51-3-9.92-4.75-15.72-4.75C14.39,1.91,1.63,14.67,1.63,30.37s12.76,28.46,28.46,28.46,28.46-12.77,28.46-28.46c0-2.07-.22-4.08-.65-6.02ZM54.98,25.04c.97-.66,1.81-1.49,2.48-2.45-1.7-6-5.33-11.2-10.18-14.88-1.15.28-2.21.77-3.16,1.43,5.46,3.61,9.45,9.28,10.86,15.9Z"/>
    <g>
      <path class="cls-7" d="M28.74,39.72c.39.34.84.64,1.33.91h-2.75s.06-.11.09-.16c.27-.41.59-.72,1.07-1.07.06.11.14.21.26.32Z"/>
      <rect class="cls-7" x="16.82" y="23.3" width="4.48" height="4.48"/>
      <rect class="cls-7" x="16.82" y="31.23" width="4.48" height="4.48"/>
      <path class="cls-7" d="M23.24,32.79h5.58c-.22.44-.4.9-.55,1.37h-5.03v-1.37Z"/>
      <rect class="cls-7" x="23.24" y="24.85" width="6" height="1.38"/>
      <path class="cls-7" d="M34.05,18.94v8.91c-.24.26-.47.52-.7.8-.07.09-.15.18-.22.27-.17-.06-.35-.09-.53-.09-.32,0-.64.1-.91.32-.14.11-.27.23-.4.35v-10.16h-2.38v1.42h-11.76v-1.42h-2.38v18.78h12.98v.03s-.08.05-.12.08c-.65.48-1.08.92-1.42,1.46-.2.3-.35.61-.46.94h-11.44c-1.27,0-2.3-1.03-2.3-2.3v-19.39c0-1.27,1.03-2.3,2.3-2.3h17.44c1.27,0,2.3,1.03,2.3,2.3Z"/>
      <path class="cls-7" d="M32.14,30.98c-.32.52-.61,1.05-.85,1.57v-.98c.39-.47.83-.91,1.31-1.3-.15.23-.31.47-.46.71Z"/>
      <path class="cls-7" d="M34.05,30.1v8.23c0,.98-.61,1.81-1.46,2.14-1.23-.34-2.32-.86-3.14-1.57-.05-.04-.15-.11-.2-.16-.03-.22-.05-.42-.06-.62h2.1v-1.75c.08-.09.13-.2.13-.33.06-1.74,1.1-3.95,2.63-5.94Z"/>
      <rect class="cls-1" x="16.82" y="23.3" width="4.48" height="4.48"/>
      <rect class="cls-1" x="16.82" y="31.23" width="4.48" height="4.48"/>
      <path class="cls-1" d="M23.24,32.79h5.58c-.22.44-.4.9-.55,1.37h-5.03v-1.37Z"/>
      <rect class="cls-1" x="17.15" y="19.34" width="11.76" height="1.42"/>
      <rect class="cls-1" x="23.24" y="24.85" width="6" height="1.38"/>
      <path class="cls-1" d="M28.91,19.34v1.42h-11.76v-1.42h-2.38v18.78h12.98c-.01-.2-.01-.41-.01-.64,0-.14,0-.29.01-.42.03-1,.21-1.97.52-2.9h-5.03v-1.37h5.58c.59-1.24,1.43-2.36,2.47-3.29v-10.16h-2.38ZM21.3,35.71h-4.48v-4.48h4.48v4.48ZM21.3,27.78h-4.48v-4.48h4.48v4.48ZM29.24,26.23h-6v-1.38h6v1.38Z"/>
      <path class="cls-4" d="M16.82,23.3v4.48h4.48v-4.48h-4.48ZM20.13,26.61h-2.14v-2.14h2.14v2.14Z"/>
      <rect class="cls-4" x="23.24" y="24.85" width="6" height="1.38"/>
      <path class="cls-4" d="M16.82,31.23v4.48h4.48v-4.48h-4.48ZM20.13,34.54h-2.14v-2.14h2.14v2.14Z"/>
      <path class="cls-5" d="M27.69,16.64c-.47-.36-1.04-.58-1.67-.61,0-1.67-1.34-3.01-3-3.01s-2.98,1.34-2.98,3.01c-.63.02-1.21.25-1.68.61-.73.55-1.21,1.43-1.21,2.43v1.69h11.76v-1.69c0-.99-.47-1.88-1.22-2.43ZM21.8,16.02c0-.69.55-1.23,1.22-1.23s1.23.54,1.23,1.23c0,.22-.06.43-.17.62-.21.36-.61.6-1.06.6s-.84-.24-1.05-.6c-.11-.19-.17-.4-.17-.62Z"/>
      <path class="cls-4" d="M28.82,32.79c-.22.44-.4.9-.55,1.37h-5.03v-1.37h5.58Z"/>
    </g>
    <g>
      <path class="cls-3" d="M32.14,30.98c-.32.52-.61,1.05-.85,1.57v-.98c.39-.47.83-.91,1.31-1.3-.15.23-.31.47-.46.71Z"/>
      <path class="cls-3" d="M49.06,38.19v2.31c0,.57-.46,1.04-1.02,1.04h-.5c-.32.36-1.31,1.17-1.32,1.17-1.13,1-2.61,1.87-4.33,2.51-1.21.5-2.69.86-4.31.99-.06.01-.12.02-.17.02-.45.03-.91.05-1.38.05-.21,0-.43-.01-.64-.02-1.01-.02-1.98-.15-2.87-.33-.03,0-.07-.01-.1-.02-3.19-.69-5.43-2.26-5.43-4.09,0-.41.11-.81.33-1.19.02-.05.06-.11.09-.16.27-.41.59-.72,1.07-1.07.06.11.14.21.26.32.39.34.84.64,1.33.91,1.82.98,4.21,1.43,6.61,1.43,3.38,0,6.77-.89,8.58-2.45.22-.2.25-.54.06-.77-.2-.22-.54-.25-.77-.05-2.36,2.03-7.91,2.8-11.96,1.68-1.23-.34-2.32-.86-3.14-1.57-.05-.04-.15-.11-.2-.16-.03-.22-.05-.42-.06-.62h2.1v-1.75c.08-.09.13-.2.13-.33.06-1.74,1.1-3.95,2.63-5.94.13-.18.27-.36.42-.54.22-.27.45-.54.69-.79.26-.28.53-.55.8-.81,1.29-.51,2.56-.53,3.68.03-.08.07-.17.14-.25.21-.09.07-.17.14-.25.21-2.66,2.28-4.72,5.35-5.09,7.84v.44c.07.18.23.31.44.34h.06c.28,0,.51-.2.54-.48.31-2.54,2.76-5.92,5.72-8.1,3.5.88,6.21,3.76,6.86,7.35.08.44.13.9.15,1.36h.22c.56,0,1.02.46,1.02,1.03Z"/>
      <path class="cls-5" d="M32.14,30.98c-.32.52-.61,1.05-.85,1.57v-.98c.39-.47.83-.91,1.31-1.3-.15.23-.31.47-.46.71Z"/>
      <path class="cls-5" d="M49.06,38.19v2.31c0,.57-.46,1.04-1.02,1.04h-.5c-.32.36-1.31,1.17-1.32,1.17-1.13,1-2.61,1.87-4.33,2.51-1.21.5-2.69.86-4.31.99-.06.01-.12.02-.17.02-.45.03-.91.05-1.38.05-.21,0-.43-.01-.64-.02-1.01-.02-1.98-.15-2.87-.33-.03,0-.07-.01-.1-.02-3.19-.69-5.43-2.26-5.43-4.09,0-.41.11-.81.33-1.19.02-.05.06-.11.09-.16.27-.41.59-.72,1.07-1.07.06.11.14.21.26.32.39.34.84.64,1.33.91,1.82.98,4.21,1.43,6.61,1.43,3.38,0,6.77-.89,8.58-2.45.22-.2.25-.54.06-.77-.2-.22-.54-.25-.77-.05-2.36,2.03-7.91,2.8-11.96,1.68-1.23-.34-2.32-.86-3.14-1.57-.05-.04-.15-.11-.2-.16-.03-.22-.05-.42-.06-.62-.01-.2-.01-.41-.01-.64,0-.11,0-.23.01-.33.07-2.12.85-4.05,2.1-5.58v.98c-.57,1.21-.92,2.4-.95,3.46-.01.29.22.54.52.56h.02c.17,0,.32-.08.41-.2.08-.09.13-.2.13-.33.06-1.74,1.1-3.95,2.63-5.94.13-.18.27-.36.42-.54.22-.27.45-.54.69-.79.26-.28.53-.55.8-.81,1.29-.51,2.56-.53,3.68.03-.08.07-.17.14-.25.21-.09.07-.17.14-.25.21-2.66,2.28-4.72,5.35-5.09,7.84l-.03.18c0,.09,0,.18.03.26.07.18.23.31.44.34h.06c.28,0,.51-.2.54-.48.31-2.54,2.76-5.92,5.72-8.1,3.5.88,6.21,3.76,6.86,7.35.08.44.13.9.15,1.36h.22c.56,0,1.02.46,1.02,1.03Z"/>
    </g>
    <path class="cls-7" d="M38.32,29.16c-.78-.47-1.62-.83-2.5-1.05.04-.05.09-.1.14-.15,1.29-.51,2.56-.53,3.68.03-.08.07-.17.14-.25.21-.09.07-.17.14-.25.21-.28.24-.56.49-.82.75Z"/>
    <path class="cls-7" d="M49.06,38.19v2.31c0,.57-.46,1.04-1.02,1.04h-.5c-.32.36-1.31,1.17-1.32,1.17-.73.64-1.6,1.23-2.58,1.74-.52.27-1.07.51-1.65.73.51-.93.79-2.01.79-3.16,0-.33-.02-.66-.08-.97.55-.21,1.06-.45,1.52-.72.39-.22.74-.46,1.04-.72.22-.2.25-.54.06-.77-.2-.22-.54-.25-.77-.05-.12.1-.25.2-.39.3-.34-3.91-2.22-7.3-4.92-9.32.5-.48,1.03-.92,1.57-1.32,3.5.88,6.21,3.76,6.86,7.35.08.44.13.9.15,1.36h.22c.56,0,1.02.46,1.02,1.03Z"/>
  </g>
  <g>
    <circle class="cls-2" cx="49.51" cy="17.07" r="9.63"/>
    <g>
      <rect class="cls-6" x="48.47" y="10.51" width="2.25" height="8.91"/>
      <rect class="cls-6" x="48.47" y="21.14" width="2.25" height="2.05"/>
    </g>
  </g>
</svg>