<?xml version="1.0" encoding="UTF-8"?>
<svg id="Final" xmlns="http://www.w3.org/2000/svg" viewBox="0 0 60.34 47.95">
  <defs>
    <style>
      .cls-1 {
        fill: #3f7efc;
      }

      .cls-2 {
        fill: #2667ff;
      }

      .cls-3 {
        fill: #7aaef9;
      }
    </style>
  </defs>
  <path class="cls-2" d="M59.98,13.65l-5.5,11.96c-.82,1.8-2.56,2.87-4.43,2.87-.61,0-1.23-.11-1.84-.35l-3.73-1.45v16.73c0,2.51-2.03,4.54-4.54,4.54h-10.3c-2.51,0-4.54-2.03-4.54-4.54v-4.15l-1.85,3.83-.24.5c-.75,1.55-2.41,2.36-4.02,2.1-.46-.07-.92-.23-1.35-.49-.8-.48-1.34-1.22-1.59-2.06-.32-.96-.25-2.04.21-3l8.02-16.65.82-2.05c.52-1.37.89-2.24,1.71-3.06.82-.82,2.05-1.47,3.31-1.47h9.83c1.05,0,1.86.17,2.74.73l5.96,2.52,4.45-9.68c.88-1.91,3.13-2.74,5.03-1.86,1.91.87,2.74,3.12,1.86,5.03Z"/>
  <path class="cls-1" d="M25.1,42.22v.1s-.04.03-.07.05l.07-.15Z"/>
  <path class="cls-3" d="M26.08,17.51c-.7.63-1.27,1.41-1.65,2.3l-1.31,3.12-8.02,16.65c-.55,1.15-.67,2.41-.4,3.56h-.61c-2.21,0-4-1.79-4-4v-6.77l-3.54,5.65c-.8,1.28-2.4,1.83-3.88,1.45-.42-.11-.84-.29-1.22-.56-1.53-1.04-1.87-3.05-.94-4.53l8.6-13.73,1.1-1.99c.42-1.75,1.99-3.06,3.88-3.06h8.58c1.44,0,2.71.76,3.41,1.91Z"/>
  <circle class="cls-3" cx="18.28" cy="6.75" r="6.75"/>
  <circle class="cls-2" cx="34.68" cy="7.8" r="7.19"/>
</svg>